<mxfile host="app.diagrams.net" modified="2024-04-22T10:53:50.845Z" agent="Mozilla/5.0 (Windows NT 10.0; Win64; x64) AppleWebKit/537.36 (KHTML, like Gecko) Chrome/122.0.0.0 Whale/3.25.232.19 Safari/537.36" etag="cMVrwCpBABAHjqqvU-pk" version="24.2.7" type="github">
  <diagram name="페이지-1" id="_IhAFZJnxYCttVRA8UsF">
    <mxGraphModel dx="674" dy="567" grid="1" gridSize="10" guides="1" tooltips="1" connect="1" arrows="1" fold="1" page="1" pageScale="1" pageWidth="827" pageHeight="1169" math="0" shadow="0">
      <root>
        <mxCell id="0" />
        <mxCell id="1" parent="0" />
        <mxCell id="oURmDPonNYk0SjRXmmHT-1" value="일반 사용자" style="shape=umlActor;verticalLabelPosition=bottom;verticalAlign=top;html=1;outlineConnect=0;" vertex="1" parent="1">
          <mxGeometry x="330" y="440" width="30" height="60" as="geometry" />
        </mxCell>
        <mxCell id="oURmDPonNYk0SjRXmmHT-2" value="예약 조회" style="ellipse;whiteSpace=wrap;html=1;" vertex="1" parent="1">
          <mxGeometry x="160" y="370" width="120" height="80" as="geometry" />
        </mxCell>
        <mxCell id="oURmDPonNYk0SjRXmmHT-3" value="예약취소" style="ellipse;whiteSpace=wrap;html=1;" vertex="1" parent="1">
          <mxGeometry x="401" y="370" width="120" height="80" as="geometry" />
        </mxCell>
        <mxCell id="oURmDPonNYk0SjRXmmHT-4" value="캠핑장검색" style="ellipse;whiteSpace=wrap;html=1;" vertex="1" parent="1">
          <mxGeometry x="160" y="505" width="120" height="80" as="geometry" />
        </mxCell>
        <mxCell id="oURmDPonNYk0SjRXmmHT-5" value="캠핑장예약" style="ellipse;whiteSpace=wrap;html=1;" vertex="1" parent="1">
          <mxGeometry x="401" y="505" width="120" height="80" as="geometry" />
        </mxCell>
        <mxCell id="oURmDPonNYk0SjRXmmHT-6" value="" style="endArrow=classic;html=1;rounded=0;entryX=1;entryY=0.5;entryDx=0;entryDy=0;exitX=0;exitY=0.5;exitDx=0;exitDy=0;dashed=1;" edge="1" parent="1" source="oURmDPonNYk0SjRXmmHT-5" target="oURmDPonNYk0SjRXmmHT-4">
          <mxGeometry width="50" height="50" relative="1" as="geometry">
            <mxPoint x="320" y="500" as="sourcePoint" />
            <mxPoint x="370" y="450" as="targetPoint" />
          </mxGeometry>
        </mxCell>
        <mxCell id="oURmDPonNYk0SjRXmmHT-7" value="" style="endArrow=classic;html=1;rounded=0;entryX=0.5;entryY=1;entryDx=0;entryDy=0;exitX=0.5;exitY=0;exitDx=0;exitDy=0;dashed=1;" edge="1" parent="1" source="oURmDPonNYk0SjRXmmHT-5" target="oURmDPonNYk0SjRXmmHT-3">
          <mxGeometry width="50" height="50" relative="1" as="geometry">
            <mxPoint x="291" y="500" as="sourcePoint" />
            <mxPoint x="341" y="450" as="targetPoint" />
          </mxGeometry>
        </mxCell>
        <mxCell id="oURmDPonNYk0SjRXmmHT-8" value="" style="endArrow=classic;html=1;rounded=0;entryX=0;entryY=0.5;entryDx=0;entryDy=0;exitX=1;exitY=0.5;exitDx=0;exitDy=0;dashed=1;" edge="1" parent="1" source="oURmDPonNYk0SjRXmmHT-2" target="oURmDPonNYk0SjRXmmHT-3">
          <mxGeometry width="50" height="50" relative="1" as="geometry">
            <mxPoint x="280" y="420" as="sourcePoint" />
            <mxPoint x="370" y="450" as="targetPoint" />
          </mxGeometry>
        </mxCell>
        <mxCell id="oURmDPonNYk0SjRXmmHT-10" value="&amp;lt;extend&amp;gt;" style="text;html=1;align=center;verticalAlign=middle;resizable=0;points=[];autosize=1;strokeColor=none;fillColor=none;" vertex="1" parent="1">
          <mxGeometry x="310" y="548" width="70" height="30" as="geometry" />
        </mxCell>
        <mxCell id="oURmDPonNYk0SjRXmmHT-11" value="&amp;lt;include&amp;gt;" style="text;html=1;align=center;verticalAlign=middle;resizable=0;points=[];autosize=1;strokeColor=none;fillColor=none;" vertex="1" parent="1">
          <mxGeometry x="451" y="468" width="80" height="30" as="geometry" />
        </mxCell>
        <mxCell id="oURmDPonNYk0SjRXmmHT-12" value="&amp;lt;extend&amp;gt;" style="text;html=1;align=center;verticalAlign=middle;resizable=0;points=[];autosize=1;strokeColor=none;fillColor=none;" vertex="1" parent="1">
          <mxGeometry x="310" y="378" width="70" height="30" as="geometry" />
        </mxCell>
        <mxCell id="oURmDPonNYk0SjRXmmHT-13" value="관리자" style="shape=umlActor;verticalLabelPosition=bottom;verticalAlign=top;html=1;outlineConnect=0;" vertex="1" parent="1">
          <mxGeometry x="370" y="800" width="30" height="60" as="geometry" />
        </mxCell>
        <mxCell id="oURmDPonNYk0SjRXmmHT-16" value="캠핑장관리" style="ellipse;whiteSpace=wrap;html=1;" vertex="1" parent="1">
          <mxGeometry x="200" y="800" width="120" height="80" as="geometry" />
        </mxCell>
        <mxCell id="oURmDPonNYk0SjRXmmHT-17" value="캠핑장검색" style="ellipse;whiteSpace=wrap;html=1;" vertex="1" parent="1">
          <mxGeometry x="441" y="800" width="120" height="80" as="geometry" />
        </mxCell>
        <mxCell id="oURmDPonNYk0SjRXmmHT-18" value="캠핑장등록" style="ellipse;whiteSpace=wrap;html=1;" vertex="1" parent="1">
          <mxGeometry x="40" y="720" width="120" height="80" as="geometry" />
        </mxCell>
        <mxCell id="oURmDPonNYk0SjRXmmHT-19" value="캠핑장수정" style="ellipse;whiteSpace=wrap;html=1;" vertex="1" parent="1">
          <mxGeometry x="40" y="800" width="120" height="80" as="geometry" />
        </mxCell>
        <mxCell id="oURmDPonNYk0SjRXmmHT-20" value="캠핑장삭제" style="ellipse;whiteSpace=wrap;html=1;" vertex="1" parent="1">
          <mxGeometry x="40" y="880" width="120" height="80" as="geometry" />
        </mxCell>
        <mxCell id="oURmDPonNYk0SjRXmmHT-22" value="" style="endArrow=none;html=1;rounded=0;exitX=1;exitY=1;exitDx=0;exitDy=0;" edge="1" parent="1" source="oURmDPonNYk0SjRXmmHT-2">
          <mxGeometry width="50" height="50" relative="1" as="geometry">
            <mxPoint x="320" y="500" as="sourcePoint" />
            <mxPoint x="320" y="470" as="targetPoint" />
          </mxGeometry>
        </mxCell>
        <mxCell id="oURmDPonNYk0SjRXmmHT-23" value="" style="endArrow=none;html=1;rounded=0;entryX=0;entryY=1;entryDx=0;entryDy=0;" edge="1" parent="1" target="oURmDPonNYk0SjRXmmHT-3">
          <mxGeometry width="50" height="50" relative="1" as="geometry">
            <mxPoint x="370" y="470" as="sourcePoint" />
            <mxPoint x="420" y="430" as="targetPoint" />
          </mxGeometry>
        </mxCell>
        <mxCell id="oURmDPonNYk0SjRXmmHT-24" value="" style="endArrow=none;html=1;rounded=0;exitX=1;exitY=0;exitDx=0;exitDy=0;" edge="1" parent="1" source="oURmDPonNYk0SjRXmmHT-4">
          <mxGeometry width="50" height="50" relative="1" as="geometry">
            <mxPoint x="320" y="500" as="sourcePoint" />
            <mxPoint x="320" y="480" as="targetPoint" />
          </mxGeometry>
        </mxCell>
        <mxCell id="oURmDPonNYk0SjRXmmHT-25" value="" style="endArrow=none;html=1;rounded=0;entryX=0;entryY=0;entryDx=0;entryDy=0;" edge="1" parent="1" target="oURmDPonNYk0SjRXmmHT-5">
          <mxGeometry width="50" height="50" relative="1" as="geometry">
            <mxPoint x="370" y="480" as="sourcePoint" />
            <mxPoint x="370" y="450" as="targetPoint" />
          </mxGeometry>
        </mxCell>
        <mxCell id="oURmDPonNYk0SjRXmmHT-26" value="" style="endArrow=none;html=1;rounded=0;exitX=1;exitY=0.5;exitDx=0;exitDy=0;" edge="1" parent="1" source="oURmDPonNYk0SjRXmmHT-16">
          <mxGeometry width="50" height="50" relative="1" as="geometry">
            <mxPoint x="320" y="850" as="sourcePoint" />
            <mxPoint x="360" y="840" as="targetPoint" />
          </mxGeometry>
        </mxCell>
        <mxCell id="oURmDPonNYk0SjRXmmHT-27" value="" style="endArrow=none;html=1;rounded=0;entryX=0;entryY=0.5;entryDx=0;entryDy=0;" edge="1" parent="1" target="oURmDPonNYk0SjRXmmHT-17">
          <mxGeometry width="50" height="50" relative="1" as="geometry">
            <mxPoint x="400" y="840" as="sourcePoint" />
            <mxPoint x="370" y="800" as="targetPoint" />
          </mxGeometry>
        </mxCell>
        <mxCell id="oURmDPonNYk0SjRXmmHT-28" value="" style="endArrow=none;html=1;rounded=0;entryX=0;entryY=0.5;entryDx=0;entryDy=0;exitX=1;exitY=0.5;exitDx=0;exitDy=0;" edge="1" parent="1" source="oURmDPonNYk0SjRXmmHT-19" target="oURmDPonNYk0SjRXmmHT-16">
          <mxGeometry width="50" height="50" relative="1" as="geometry">
            <mxPoint x="320" y="850" as="sourcePoint" />
            <mxPoint x="370" y="800" as="targetPoint" />
          </mxGeometry>
        </mxCell>
        <mxCell id="oURmDPonNYk0SjRXmmHT-29" value="" style="endArrow=none;html=1;rounded=0;entryX=1;entryY=0.5;entryDx=0;entryDy=0;exitX=1;exitY=0.5;exitDx=0;exitDy=0;" edge="1" parent="1" source="oURmDPonNYk0SjRXmmHT-20" target="oURmDPonNYk0SjRXmmHT-18">
          <mxGeometry width="50" height="50" relative="1" as="geometry">
            <mxPoint x="180" y="920" as="sourcePoint" />
            <mxPoint x="370" y="800" as="targetPoint" />
            <Array as="points">
              <mxPoint x="180" y="920" />
              <mxPoint x="180" y="760" />
            </Array>
          </mxGeometry>
        </mxCell>
      </root>
    </mxGraphModel>
  </diagram>
</mxfile>
